<?xml version="1.0" encoding="UTF-8" standalone="no"?>
<!DOCTYPE svg PUBLIC "-//W3C//DTD SVG 1.1//EN"
 "http://www.w3.org/Graphics/SVG/1.1/DTD/svg11.dtd">
<!-- Generated by graphviz version 2.43.0 (0)
 -->
<!-- Title: PegasusDependenciesColored Pages: 1 -->
<svg width="1192pt" height="399pt"
 viewBox="0.00 0.00 1192.00 399.00" xmlns="http://www.w3.org/2000/svg" xmlns:xlink="http://www.w3.org/1999/xlink">
<g id="graph0" class="graph" transform="scale(1 1) rotate(0) translate(4 395)">
<title>PegasusDependenciesColored</title>
<polygon fill="white" stroke="transparent" points="-4,4 -4,-395 1188,-395 1188,4 -4,4"/>
<!-- core -->
<g id="node1" class="node">
<title>core</title>
<polygon fill="#f6d365" stroke="black" points="175,-122 0,-122 0,-84 175,-84 175,-122"/>
<text text-anchor="middle" x="87.5" y="-106.8" font-family="Times,serif" font-size="14.00">core</text>
<text text-anchor="middle" x="87.5" y="-91.8" font-family="Times,serif" font-size="14.00">Config, logger, Prisma</text>
</g>
<!-- auth -->
<g id="node3" class="node">
<title>auth</title>
<polygon fill="#fda085" stroke="black" points="355,-250 218,-250 218,-212 355,-212 355,-250"/>
<text text-anchor="middle" x="286.5" y="-234.8" font-family="Times,serif" font-size="14.00">auth</text>
<text text-anchor="middle" x="286.5" y="-219.8" font-family="Times,serif" font-size="14.00">Auth.js + Tenant</text>
</g>
<!-- core&#45;&gt;auth -->
<g id="edge1" class="edge">
<title>core&#45;&gt;auth</title>
<path fill="none" stroke="black" d="M117.99,-122.16C152.47,-144.57 209.63,-181.7 247.43,-206.26"/>
<polygon fill="black" stroke="black" points="245.84,-209.4 256.13,-211.92 249.65,-203.53 245.84,-209.4"/>
</g>
<!-- events -->
<g id="node4" class="node">
<title>events</title>
<polygon fill="#fbc2eb" stroke="black" points="551,-166 427,-166 427,-128 551,-128 551,-166"/>
<text text-anchor="middle" x="489" y="-150.8" font-family="Times,serif" font-size="14.00">events</text>
<text text-anchor="middle" x="489" y="-135.8" font-family="Times,serif" font-size="14.00">CRUD torneios</text>
</g>
<!-- core&#45;&gt;events -->
<g id="edge3" class="edge">
<title>core&#45;&gt;events</title>
<path fill="none" stroke="black" d="M175.19,-112.55C247.44,-120.5 349.11,-131.7 416.71,-139.15"/>
<polygon fill="black" stroke="black" points="416.52,-142.65 426.84,-140.26 417.28,-135.69 416.52,-142.65"/>
</g>
<!-- matches -->
<g id="node5" class="node">
<title>matches</title>
<polygon fill="#fbc2eb" stroke="black" points="766,-38 623,-38 623,0 766,0 766,-38"/>
<text text-anchor="middle" x="694.5" y="-22.8" font-family="Times,serif" font-size="14.00">matches</text>
<text text-anchor="middle" x="694.5" y="-7.8" font-family="Times,serif" font-size="14.00">Chaves &amp; Agenda</text>
</g>
<!-- core&#45;&gt;matches -->
<g id="edge6" class="edge">
<title>core&#45;&gt;matches</title>
<path fill="none" stroke="black" d="M158.35,-83.93C177.66,-78.71 198.63,-73.09 218,-68 297.86,-47.01 316.13,-32.72 398,-22 470.13,-12.56 553.02,-12.65 612.61,-14.62"/>
<polygon fill="black" stroke="black" points="612.6,-18.12 622.71,-14.98 612.84,-11.13 612.6,-18.12"/>
</g>
<!-- billing -->
<g id="node8" class="node">
<title>billing</title>
<polygon fill="#c2e9fb" stroke="black" points="580,-82 398,-82 398,-44 580,-44 580,-82"/>
<text text-anchor="middle" x="489" y="-66.8" font-family="Times,serif" font-size="14.00">billing</text>
<text text-anchor="middle" x="489" y="-51.8" font-family="Times,serif" font-size="14.00">Stripe / LemonSqueezy</text>
</g>
<!-- core&#45;&gt;billing -->
<g id="edge11" class="edge">
<title>core&#45;&gt;billing</title>
<path fill="none" stroke="black" d="M175.19,-94.32C237.59,-88.07 321.96,-79.62 387.35,-73.08"/>
<polygon fill="black" stroke="black" points="388.07,-76.52 397.67,-72.04 387.37,-69.56 388.07,-76.52"/>
</g>
<!-- ui -->
<g id="node2" class="node">
<title>ui</title>
<polygon fill="#f6d365" stroke="black" points="162.5,-250 12.5,-250 12.5,-212 162.5,-212 162.5,-250"/>
<text text-anchor="middle" x="87.5" y="-234.8" font-family="Times,serif" font-size="14.00">ui</text>
<text text-anchor="middle" x="87.5" y="-219.8" font-family="Times,serif" font-size="14.00">Tailwind + Shadcn</text>
</g>
<!-- ui&#45;&gt;auth -->
<g id="edge2" class="edge">
<title>ui&#45;&gt;auth</title>
<path fill="none" stroke="black" d="M162.7,-231C177.41,-231 192.89,-231 207.72,-231"/>
<polygon fill="black" stroke="black" points="207.86,-234.5 217.86,-231 207.86,-227.5 207.86,-234.5"/>
</g>
<!-- auth&#45;&gt;events -->
<g id="edge4" class="edge">
<title>auth&#45;&gt;events</title>
<path fill="none" stroke="black" d="M333,-211.94C362.63,-199.52 401.47,-183.25 432.85,-170.1"/>
<polygon fill="black" stroke="black" points="434.47,-173.22 442.34,-166.13 431.76,-166.77 434.47,-173.22"/>
</g>
<!-- auth&#45;&gt;billing -->
<g id="edge12" class="edge">
<title>auth&#45;&gt;billing</title>
<path fill="none" stroke="black" d="M300.56,-211.91C319.5,-185.35 356.84,-137.05 398,-106 407.61,-98.75 418.64,-92.26 429.61,-86.67"/>
<polygon fill="black" stroke="black" points="431.34,-89.72 438.78,-82.17 428.26,-83.43 431.34,-89.72"/>
</g>
<!-- events&#45;&gt;matches -->
<g id="edge5" class="edge">
<title>events&#45;&gt;matches</title>
<path fill="none" stroke="black" d="M532.98,-127.98C548.17,-120.74 565.15,-112.05 580,-103 600.34,-90.6 603.86,-85.18 623,-71 634.8,-62.26 647.73,-52.71 659.26,-44.21"/>
<polygon fill="black" stroke="black" points="661.39,-46.99 667.37,-38.24 657.24,-41.35 661.39,-46.99"/>
</g>
<!-- gamification -->
<g id="node6" class="node">
<title>gamification</title>
<polygon fill="#a1c4fd" stroke="black" points="989,-122 809,-122 809,-84 989,-84 989,-122"/>
<text text-anchor="middle" x="899" y="-106.8" font-family="Times,serif" font-size="14.00">gamification</text>
<text text-anchor="middle" x="899" y="-91.8" font-family="Times,serif" font-size="14.00">Ranking &amp; Campanhas</text>
</g>
<!-- events&#45;&gt;gamification -->
<g id="edge8" class="edge">
<title>events&#45;&gt;gamification</title>
<path fill="none" stroke="black" d="M551.08,-140.41C616.5,-133.36 721.33,-122.05 798.65,-113.71"/>
<polygon fill="black" stroke="black" points="799.33,-117.16 808.89,-112.61 798.58,-110.2 799.33,-117.16"/>
</g>
<!-- sharing -->
<g id="node7" class="node">
<title>sharing</title>
<polygon fill="#c2e9fb" stroke="black" points="1184,-165 1032,-165 1032,-127 1184,-127 1184,-165"/>
<text text-anchor="middle" x="1108" y="-149.8" font-family="Times,serif" font-size="14.00">sharing</text>
<text text-anchor="middle" x="1108" y="-134.8" font-family="Times,serif" font-size="14.00">Feed &amp; Resultados</text>
</g>
<!-- events&#45;&gt;sharing -->
<g id="edge10" class="edge">
<title>events&#45;&gt;sharing</title>
<path fill="none" stroke="black" d="M551.19,-152.57C573.74,-154.36 599.51,-156.12 623,-157 762.73,-162.25 925.25,-156.03 1021.93,-151.03"/>
<polygon fill="black" stroke="black" points="1022.14,-154.52 1031.94,-150.51 1021.77,-147.53 1022.14,-154.52"/>
</g>
<!-- matches&#45;&gt;gamification -->
<g id="edge7" class="edge">
<title>matches&#45;&gt;gamification</title>
<path fill="none" stroke="black" d="M741.45,-38.06C771.38,-50.48 810.6,-66.75 842.3,-79.9"/>
<polygon fill="black" stroke="black" points="841.3,-83.27 851.88,-83.87 843.99,-76.8 841.3,-83.27"/>
</g>
<!-- gamification&#45;&gt;sharing -->
<g id="edge9" class="edge">
<title>gamification&#45;&gt;sharing</title>
<path fill="none" stroke="black" d="M989.29,-121.55C1000.18,-123.81 1011.28,-126.12 1022.11,-128.37"/>
<polygon fill="black" stroke="black" points="1021.45,-131.8 1031.96,-130.41 1022.88,-124.95 1021.45,-131.8"/>
</g>
<!-- legend -->
<g id="node9" class="node">
<title>legend</title>
<polygon fill="#ffffff" stroke="black" points="168,-391 1,-391 1,-293 174,-293 174,-385 168,-391"/>
<polyline fill="none" stroke="black" points="168,-391 168,-385 "/>
<polyline fill="none" stroke="black" points="174,-385 168,-385 "/>
<text text-anchor="middle" x="87.5" y="-375.8" font-family="Times,serif" font-size="14.00">Legenda:</text>
<text text-anchor="middle" x="87.5" y="-360.8" font-family="Times,serif" font-size="14.00">🟨 Foundation</text>
<text text-anchor="middle" x="87.5" y="-345.8" font-family="Times,serif" font-size="14.00">🟧 Auth</text>
<text text-anchor="middle" x="87.5" y="-330.8" font-family="Times,serif" font-size="14.00">💗 Events &amp; Matches</text>
<text text-anchor="middle" x="87.5" y="-315.8" font-family="Times,serif" font-size="14.00">💙 Gamification</text>
<text text-anchor="middle" x="87.5" y="-300.8" font-family="Times,serif" font-size="14.00">🩵 Sharing &amp; Billing</text>
</g>
</g>
</svg>
